<svg width="14.000000" height="14.000000" viewBox="0 0 14 14" fill="none" xmlns="http://www.w3.org/2000/svg" xmlns:xlink="http://www.w3.org/1999/xlink">
	<desc>
			Created with Pixso.
	</desc>
	<defs>
		<clipPath id="clip8_6613">
			<rect id="svg" width="14.000000" height="14.000000" fill="white" fill-opacity="0"/>
		</clipPath>
	</defs>
	<g clip-path="url(#clip8_6613)">
		<path id="Vector" d="M3 12.77C2.76 12.77 2.56 12.57 2.56 12.33L2.56 0.65C2.56 0.41 2.76 0.21 3 0.21C3.23 0.21 3.44 0.41 3.44 0.65L3.44 12.33C3.44 12.57 3.23 12.77 3 12.77Z" fill="#FFFFFF" fill-opacity="0.866667" fill-rule="nonzero"/>
		<path id="Vector" d="M9.52 9.27L3 9.27C2.76 9.27 2.56 9.07 2.56 8.83C2.56 8.59 2.76 8.39 3 8.39L9.52 8.39C10.17 8.39 10.47 8.22 10.52 8.08C10.58 7.93 10.5 7.6 10.04 7.15L9.34 6.45C9.04 6.2 8.88 5.82 8.85 5.4C8.84 4.96 9.02 4.52 9.34 4.2L10.04 3.5C10.47 3.07 10.61 2.72 10.54 2.57C10.48 2.42 10.14 2.27 9.52 2.27L3 2.27C2.75 2.27 2.56 2.07 2.56 1.83C2.56 1.59 2.76 1.39 3 1.39L9.52 1.39C10.81 1.39 11.22 1.92 11.35 2.24C11.48 2.55 11.57 3.22 10.66 4.13L9.96 4.83C9.81 4.97 9.72 5.18 9.73 5.38C9.73 5.56 9.81 5.71 9.92 5.82L10.66 6.54C11.55 7.43 11.46 8.1 11.34 8.42C11.2 8.73 10.79 9.27 9.52 9.27Z" fill="#FFFFFF" fill-opacity="0.866667" fill-rule="nonzero"/>
		<g opacity="0.000000"/>
	</g>
</svg>
