<svg width="24.000000" height="24.000000" viewBox="0 0 24 24" fill="none" xmlns="http://www.w3.org/2000/svg" xmlns:xlink="http://www.w3.org/1999/xlink">
	<desc>
			Created with Pixso.
	</desc>
	<defs/>
	<rect id="vuesax/outline/send" width="24.000000" height="24.000000" fill="#FFFFFF" fill-opacity="0"/>
	<path id="Vector" d="M5.4 21.75C4.28 21.75 3.57 21.36 3.13 20.91C2.25 20.03 1.63 18.16 3.6 14.2L4.47 12.47C4.58 12.24 4.58 11.76 4.47 11.52L3.6 9.79C1.62 5.82 2.25 3.94 3.13 3.07C4 2.19 5.88 1.56 9.83 3.55L18.39 7.83C20.52 8.89 21.7 10.37 21.7 12C21.7 13.61 20.52 15.09 18.4 16.15L9.84 20.43C7.9 21.4 6.46 21.75 5.4 21.75ZM5.4 3.75C4.87 3.75 4.44 3.87 4.18 4.13C3.45 4.85 3.75 6.72 4.94 9.11L5.81 10.85C6.13 11.51 6.13 12.49 5.81 13.13L4.94 14.86C3.75 17.27 3.45 19.12 4.18 19.84C4.9 20.57 6.77 20.28 9.17 19.08L17.74 14.8C19.3 14.02 20.2 13 20.2 11.99C20.2 10.98 19.29 9.94 17.73 9.16L9.16 4.89C7.64 4.13 6.33 3.75 5.4 3.75Z" fill="#8687E7" fill-opacity="1.000000" fill-rule="nonzero"/>
	<path id="Vector" d="M10.84 12.75L5.43 12.75C5.02 12.75 4.68 12.4 4.68 12C4.68 11.59 5.02 11.25 5.43 11.25L10.84 11.25C11.25 11.25 11.59 11.59 11.59 12C11.59 12.4 11.25 12.75 10.84 12.75Z" fill="#8687E7" fill-opacity="1.000000" fill-rule="nonzero"/>
	<g opacity="0.000000"/>
</svg>
